<svg xmlns="http://www.w3.org/2000/svg" version="1.1" xmlns:xlink="http://www.w3.org/1999/xlink" xmlns:svgjs="http://svgjs.dev/svgjs" width="1000" height="1000" viewBox="0 0 1000 1000"><rect width="1000" height="1000" fill="#000000"></rect><g transform="matrix(0.7,0,0,0.7,149.57576131800283,364.4363846725961)"><svg viewBox="0 0 396 154" data-background-color="#ffffff" preserveAspectRatio="xMidYMid meet" height="388" width="1000" xmlns="http://www.w3.org/2000/svg" xmlns:xlink="http://www.w3.org/1999/xlink"><g id="tight-bounds" transform="matrix(1,0,0,1,0.23999790776747432,-0.13403254631735706)"><svg viewBox="0 0 395.52 154.26806032970885" height="154.26806032970885" width="395.52"><g><svg viewBox="0 0 395.52 154.26806032970885" height="154.26806032970885" width="395.52"><g><svg viewBox="0 0 395.52 154.26806032970885" height="154.26806032970885" width="395.52"><g><svg viewBox="0 0 395.52 154.26806032970885" height="154.26806032970885" width="395.52"><g><svg viewBox="0 0 395.52 154.26806032970885" height="154.26806032970885" width="395.52"><g transform="matrix(1,0,0,1,0,0)"><svg width="395.52" viewBox="0.6800000071525574 -31.040000915527344 114.02999877929688 44.47999954223633" height="154.26806032970885" data-palette-color="#222222"><g class="undefined-text-0" data-fill-palette-color="primary" id="text-0"><path d="M22.24-6.76L22.24-6.76Q22.24-1.4 24.64-1.4L24.64-1.4Q26.48-1.4 28.38-4.64 30.28-7.88 31.52-12.54 32.76-17.2 32.84-21.36L32.84-21.36Q30.88-22.96 29.28-25.52 27.68-28.08 27.68-28.82 27.68-29.56 28.36-30.3 29.04-31.04 29.8-31.04L29.8-31.04Q31.48-31.04 32.74-28.56 34-26.08 34.12-22.56L34.12-22.56Q35.6-21.28 36.68-21.28 37.76-21.28 38.08-21.96L38.08-21.96Q38.56-21.96 38.56-21.36L38.56-21.36Q38.56-20.24 37.32-19.88L37.32-19.88 36.6-19.8Q35.36-19.8 34.12-20.52L34.12-20.52Q33.88-15.96 32.56-11.24 31.24-6.52 29.08-3.26 26.92 0 24.64 0L24.64 0Q21.44 0 20.2-3.12L20.2-3.12Q19.2-5.64 19.2-9.16L19.2-9.16Q19.2-10.08 19.28-11.04L19.28-11.04Q11.64 2.92 7.08 2.92L7.08 2.92Q5.12 2.92 5.12 1.12L5.12 1.12Q5.12 1.04 5.12 0.92L5.12 0.92Q9.88-11.96 9.88-20.8L9.88-20.8Q9.88-27.64 5.96-27.64L5.96-27.64Q3.48-27.64 2.48-25.52L2.48-25.52Q2.16-24.84 2.16-24.36 2.16-23.88 2.44-23.88L2.44-23.88Q2.36-23.32 1.52-23.32 0.68-23.32 0.68-24.4L0.68-24.4Q0.68-26.04 2.34-27.32 4-28.6 6.44-28.6L6.44-28.6Q12.48-28.6 12.48-19.36L12.48-19.36Q12.48-15.92 11.68-11.66 10.88-7.4 10.34-5.58 9.8-3.76 8.4 0.72L8.4 0.72Q8.28 1.16 8.6 1.16L8.6 1.16Q8.88 1.12 9.28 0.8L9.28 0.8Q12.08-1.64 14.8-6L14.8-6Q18.72-12.44 20.56-17.8L20.56-17.8Q22.52-23.88 24.32-23.88L24.32-23.88Q25.12-23.88 25.12-23.04L25.12-23.04Q24.16-20 22.72-11.92L22.72-11.92Q22.24-9.08 22.24-6.76ZM30.08-29.8L30.08-29.8Q29.92-29.72 29.92-29.44 29.92-29.16 30.06-28.6 30.2-28.04 31-26.6 31.8-25.16 32.76-24L32.76-24Q32.48-26.48 31.66-28.14 30.84-29.8 30.08-29.8ZM47.72-19.4L47.72-19.4Q50.76-19.4 50.76-15.84L50.76-15.84Q50.76-13.8 49.4-11.56L49.4-11.56Q47.08-7.84 43.24-7.84L43.24-7.84Q42.64-7.84 42.24-8.04 41.84-8.24 41.64-8.64L41.64-8.64Q44.48-8.64 46.84-11.92L46.84-11.92Q48.76-14.56 48.76-16.76L48.76-16.76Q48.76-18.4 47.44-18.4L47.44-18.4Q44.8-18.4 42.52-14.28L42.52-14.28Q40.08-9.8 40.08-5.08L40.08-5.08Q40.08-1.08 42.36-0.28L42.36-0.28Q42.8-0.12 43.48-0.12 44.16-0.12 44.92-0.46 45.68-0.8 46.2-1.28L46.2-1.28Q47.24-2.24 47.92-3.4L47.92-3.4Q48.08-3.72 48.52-3.72L48.52-3.72Q49.24-3.72 49.2-3.48L49.2-3.48Q49.08-3.04 48.3-2 47.52-0.96 46.86-0.34 46.2 0.28 45.14 0.78 44.08 1.28 43 1.28L43 1.28Q38.76 1.28 37.6-2.72L37.6-2.72Q37.24-4.08 37.24-5.52L37.24-5.52Q37.24-8.2 38.48-11.36L38.48-11.36Q40.44-16.16 43.88-18.28L43.88-18.28Q45.76-19.4 47.72-19.4ZM53.88-3.4L53.88-3.4Q53.88-9.32 55.1-13.96 56.32-18.6 58.2-18.6L58.2-18.6Q59.12-18.6 59.12-17.6L59.12-17.6Q58.72-16.56 58.12-14.84 57.52-13.12 56.54-8.62 55.56-4.12 55.56-0.6L55.56-0.6Q55.56-0.04 54.96-0.04L54.96-0.04Q53.88-0.04 53.88-3.4ZM59.72-23.04L59.24-22.36Q58.4-22.36 58.4-23.96L58.4-23.96Q58.4-24.92 58.92-25.98 59.44-27.04 60.4-27.04L60.4-27.04Q61.2-27.04 61.2-26.12L61.2-26.12Q61.2-25.2 59.72-23.04L59.72-23.04ZM62.63 12.52L62.63 12.52Q66.23 12.52 68.27 9.12L68.27 9.12Q70.03 6.12 70.99 1.64L70.99 1.64Q63.75 1.8 59.87 7.16L59.87 7.16Q59.63 7.52 59.11 7.28L59.11 7.28Q58.83 7.12 58.95 6.88L58.95 6.88Q60.67 4.28 63.75 2.46 66.83 0.64 71.23 0.48L71.23 0.48Q71.67-1.52 72.07-4.2 72.47-6.88 72.99-9.4L72.99-9.4 72.63-9.4Q67.43-0.16 64.71-0.16L64.71-0.16Q61.67-0.16 61.67-4.84 61.67-9.52 63.67-14.26 65.67-19 67.31-19.36L67.31-19.36 67.55-19.4Q68.23-19.4 68.23-18.52L68.23-18.52Q67.79-17.44 67.11-15.7 66.43-13.96 65.31-9.98 64.19-6 64.19-3.78 64.19-1.56 65.15-1.56L65.15-1.56Q66.27-1.56 68.75-5.44L68.75-5.44Q72.39-11.12 75.07-16.96L75.07-16.96Q76.23-19.4 77.55-19.4L77.55-19.4Q78.39-19.4 78.39-18.48L78.39-18.48Q77.63-17.08 76.55-13.24 75.47-9.4 74.79-5.5 74.11-1.6 73.63 0.6L73.63 0.6Q76.67 1.12 77.15 3.24L77.15 3.24Q77.23 3.6 77.23 4.22 77.23 4.84 76.75 5.3 76.27 5.76 75.91 5.76L75.91 5.76Q75.99 5.48 75.95 4.78 75.91 4.08 75.69 3.6 75.47 3.12 74.87 2.6 74.27 2.08 73.31 1.84L73.31 1.84Q70.23 13.44 62.63 13.44L62.63 13.44Q59.35 13.44 58.27 11.12L58.27 11.12Q58.23 11 58.23 10.92L58.23 10.92Q58.23 10.68 58.65 10.62 59.07 10.56 59.27 10.88L59.27 10.88Q59.99 12.52 62.63 12.52ZM94.15 3L94.15 3Q94.63 3 95.05 2.58 95.47 2.16 95.83 1.28L95.83 1.28Q95.87 0.92 96.31 0.92 96.75 0.92 96.65 1.28 96.55 1.64 96.33 2.16 96.11 2.68 95.41 3.54 94.71 4.4 93.99 4.4L93.99 4.4Q92.39 4.4 91.51 2.4L91.51 2.4Q90.59 0.4 90.59-2.54 90.59-5.48 91.03-8.6L91.03-8.6 90.67-8.6Q85.83-0.16 83.23-0.16L83.23-0.16Q80.15-0.16 80.15-4.86 80.15-9.56 82.15-14.24L82.15-14.24Q84.35-19.4 86.03-19.4L86.03-19.4Q86.75-19.4 86.75-18.52L86.75-18.52Q85.07-14.08 83.87-9.88 82.67-5.68 82.67-3.62 82.67-1.56 83.63-1.56L83.63-1.56Q84.31-1.56 85.65-3.2 86.99-4.84 88.39-7.2L88.39-7.2Q91.39-12.28 92.97-15.84 94.55-19.4 96.23-19.4L96.23-19.4Q97.03-19.4 97.03-18.52L97.03-18.52Q94.47-13.44 93.39-6.4L93.39-6.4Q92.95-3.6 92.95-0.92L92.95-0.92Q92.95 3 94.15 3ZM101.87-6.48L102.23-6.48Q107.39-19.24 112.27-19.24L112.27-19.24Q114.31-19.24 114.31-17.28L114.31-17.28Q114.03-16.36 113.59-14.86 113.15-13.36 112.41-9.48 111.67-5.6 111.67-2.68L111.67-2.68Q111.67 1.56 112.91 1.56L112.91 1.56Q113.39 1.56 113.83 1.18 114.27 0.8 114.43 0.8L114.43 0.8Q114.99 0.8 114.43 1.68L114.43 1.68Q114.23 1.96 113.69 2.44 113.15 2.92 112.59 2.92L112.59 2.92Q111.07 2.92 110.21 0.74 109.35-1.44 109.35-4.92L109.35-4.92Q109.35-10.44 111.07-17.04L111.07-17.04Q111.23-17.56 110.75-17.56L110.75-17.56Q110.43-17.56 110.03-17.24L110.03-17.24Q108.11-15.56 105.99-11.68 103.87-7.8 102.67-4.74 101.47-1.68 101.47-1.18 101.47-0.68 100.91-0.68L100.91-0.68Q99.63-0.68 99.63-3.84L99.63-3.84Q99.63-9.8 100.85-14.64 102.07-19.48 103.79-19.48L103.79-19.48Q104.51-19.48 104.51-18.6L104.51-18.6Q102.67-12.64 101.87-6.48L101.87-6.48Z" fill="#ffffff" data-fill-palette-color="primary"></path></g></svg></g></svg></g></svg></g></svg></g></svg></g><defs></defs></svg><rect width="395.52" height="154.26806032970885" fill="none" stroke="none" visibility="hidden"></rect></g></svg></g></svg>